<?xml version="1.0" encoding="UTF-8"?>
<svg xmlns="http://www.w3.org/2000/svg" width="1610" height="764" viewBox="0 0 1610 764">
<rect width="1610" height="764" fill="#f7f6f2"/>
<!-- Relationship lines -->
<path d="M 225 124 L 225 200" fill="none" stroke="#2a52be" stroke-width="1.8"  opacity="0.85"/>
<text x="225" y="133" text-anchor="middle" font-family="monospace" font-size="12" font-weight="bold" fill="#b45309">1</text>
<text x="225" y="181" text-anchor="middle" font-family="monospace" font-size="12" font-weight="bold" fill="#b45309">N</text>
<rect x="179" y="151" width="93" height="20" rx="4" fill="white" stroke="#2a52be" stroke-width="1"/><text x="225" y="166" text-anchor="middle" font-family="monospace" font-size="10" fill="#2a52be">categorises</text>
<path d="M 290 222 L 395 222 L 395 302 L 500 302" fill="none" stroke="#2a52be" stroke-width="1.8"  opacity="0.85"/>
<text x="304" y="217" text-anchor="middle" font-family="monospace" font-size="12" font-weight="bold" fill="#b45309">1</text>
<text x="486" y="297" text-anchor="middle" font-family="monospace" font-size="12" font-weight="bold" fill="#b45309">N</text>
<rect x="317" y="211" width="51" height="20" rx="4" fill="white" stroke="#2a52be" stroke-width="1"/><text x="342" y="226" text-anchor="middle" font-family="monospace" font-size="10" fill="#2a52be">types</text>
<path d="M 290 362 L 500 302" fill="none" stroke="#2a52be" stroke-width="1.8"  opacity="0.85"/>
<text x="303" y="353" text-anchor="middle" font-family="monospace" font-size="12" font-weight="bold" fill="#b45309">1</text>
<text x="486" y="300" text-anchor="middle" font-family="monospace" font-size="12" font-weight="bold" fill="#b45309">N</text>
<rect x="359" y="321" width="72" height="20" rx="4" fill="white" stroke="#2a52be" stroke-width="1"/><text x="395" y="336" text-anchor="middle" font-family="monospace" font-size="10" fill="#2a52be">contains</text>
<path d="M 630 302 L 820 302" fill="none" stroke="#2a52be" stroke-width="1.8"  opacity="0.85"/>
<text x="644" y="297" text-anchor="middle" font-family="monospace" font-size="12" font-weight="bold" fill="#b45309">1</text>
<text x="806" y="297" text-anchor="middle" font-family="monospace" font-size="12" font-weight="bold" fill="#b45309">N</text>
<rect x="682" y="291" width="86" height="20" rx="4" fill="white" stroke="#2a52be" stroke-width="1"/><text x="725" y="306" text-anchor="middle" font-family="monospace" font-size="10" fill="#2a52be">printed_as</text>
<path d="M 225 384 L 225 490 L 885 490 L 885 324" fill="none" stroke="#2a52be" stroke-width="1.8"  opacity="0.85"/>
<text x="225" y="393" text-anchor="middle" font-family="monospace" font-size="12" font-weight="bold" fill="#b45309">1</text>
<text x="885" y="333" text-anchor="middle" font-family="monospace" font-size="12" font-weight="bold" fill="#b45309">N</text>
<rect x="526" y="479" width="58" height="20" rx="4" fill="white" stroke="#2a52be" stroke-width="1"/><text x="555" y="494" text-anchor="middle" font-family="monospace" font-size="10" fill="#2a52be">in_set</text>
<path d="M 1025 144 L 1025 265 L 905 265 L 905 280" fill="none" stroke="#2a52be" stroke-width="1.8"  opacity="0.85"/>
<text x="1025" y="153" text-anchor="middle" font-family="monospace" font-size="12" font-weight="bold" fill="#b45309">1</text>
<text x="905" y="261" text-anchor="middle" font-family="monospace" font-size="12" font-weight="bold" fill="#b45309">N</text>
<rect x="929" y="254" width="72" height="20" rx="4" fill="white" stroke="#2a52be" stroke-width="1"/><text x="965" y="269" text-anchor="middle" font-family="monospace" font-size="10" fill="#2a52be">image_of</text>
<path d="M 1040 302 L 950 302" fill="none" stroke="#2a52be" stroke-width="1.8"  opacity="0.85"/>
<text x="1026" y="297" text-anchor="middle" font-family="monospace" font-size="12" font-weight="bold" fill="#b45309">1</text>
<text x="964" y="297" text-anchor="middle" font-family="monospace" font-size="12" font-weight="bold" fill="#b45309">N</text>
<rect x="959" y="291" width="72" height="20" rx="4" fill="white" stroke="#2a52be" stroke-width="1"/><text x="995" y="306" text-anchor="middle" font-family="monospace" font-size="10" fill="#2a52be">drawn_by</text>
<path d="M 1265 104 L 1265 134 L 970 134 L 970 302 L 950 302" fill="none" stroke="#2a52be" stroke-width="1.8"  opacity="0.85"/>
<text x="1265" y="113" text-anchor="middle" font-family="monospace" font-size="12" font-weight="bold" fill="#b45309">1</text>
<text x="964" y="297" text-anchor="middle" font-family="monospace" font-size="12" font-weight="bold" fill="#b45309">N</text>
<rect x="931" y="207" width="79" height="20" rx="4" fill="white" stroke="#2a52be" stroke-width="1"/><text x="970" y="222" text-anchor="middle" font-family="monospace" font-size="10" fill="#2a52be">rarity_of</text>
<path d="M 465 520 L 465 374 L 540 374 L 540 324" fill="none" stroke="#2a52be" stroke-width="1.8"  opacity="0.85"/>
<text x="465" y="501" text-anchor="middle" font-family="monospace" font-size="12" font-weight="bold" fill="#b45309">1</text>
<text x="540" y="333" text-anchor="middle" font-family="monospace" font-size="12" font-weight="bold" fill="#b45309">N</text>
<rect x="477" y="363" width="51" height="20" rx="4" fill="white" stroke="#2a52be" stroke-width="1"/><text x="502" y="378" text-anchor="middle" font-family="monospace" font-size="10" fill="#2a52be">names</text>
<path d="M 665 520 L 665 359 L 565 359 L 565 324" fill="none" stroke="#2a52be" stroke-width="1.8"  opacity="0.85"/>
<text x="665" y="501" text-anchor="middle" font-family="monospace" font-size="12" font-weight="bold" fill="#b45309">1</text>
<text x="565" y="333" text-anchor="middle" font-family="monospace" font-size="12" font-weight="bold" fill="#b45309">N</text>
<rect x="583" y="348" width="65" height="20" rx="4" fill="white" stroke="#2a52be" stroke-width="1"/><text x="615" y="363" text-anchor="middle" font-family="monospace" font-size="10" fill="#2a52be">effects</text>
<path d="M 865 520 L 865 344 L 590 344 L 590 324" fill="none" stroke="#2a52be" stroke-width="1.8"  opacity="0.85"/>
<text x="865" y="501" text-anchor="middle" font-family="monospace" font-size="12" font-weight="bold" fill="#b45309">1</text>
<text x="590" y="333" text-anchor="middle" font-family="monospace" font-size="12" font-weight="bold" fill="#b45309">N</text>
<rect x="691" y="333" width="72" height="20" rx="4" fill="white" stroke="#2a52be" stroke-width="1"/><text x="727" y="348" text-anchor="middle" font-family="monospace" font-size="10" fill="#2a52be">triggers</text>
<path d="M 480 520 L 480 394 L 860 394 L 860 324" fill="none" stroke="#2a52be" stroke-width="1.8"  opacity="0.85"/>
<text x="480" y="501" text-anchor="middle" font-family="monospace" font-size="12" font-weight="bold" fill="#b45309">0..1</text>
<text x="860" y="333" text-anchor="middle" font-family="monospace" font-size="12" font-weight="bold" fill="#b45309">N</text>
<rect x="645" y="383" width="51" height="20" rx="4" fill="white" stroke="#2a52be" stroke-width="1"/><text x="670" y="398" text-anchor="middle" font-family="monospace" font-size="10" fill="#2a52be">names</text>
<path d="M 665 520 L 665 409 L 885 409 L 885 324" fill="none" stroke="#2a52be" stroke-width="1.8"  opacity="0.85"/>
<text x="665" y="501" text-anchor="middle" font-family="monospace" font-size="12" font-weight="bold" fill="#b45309">0..1</text>
<text x="885" y="333" text-anchor="middle" font-family="monospace" font-size="12" font-weight="bold" fill="#b45309">N</text>
<rect x="743" y="398" width="65" height="20" rx="4" fill="white" stroke="#2a52be" stroke-width="1"/><text x="775" y="413" text-anchor="middle" font-family="monospace" font-size="10" fill="#2a52be">effects</text>
<path d="M 865 520 L 865 424 L 910 424 L 910 324" fill="none" stroke="#2a52be" stroke-width="1.8"  opacity="0.85"/>
<text x="865" y="501" text-anchor="middle" font-family="monospace" font-size="12" font-weight="bold" fill="#b45309">0..1</text>
<text x="910" y="333" text-anchor="middle" font-family="monospace" font-size="12" font-weight="bold" fill="#b45309">N</text>
<rect x="851" y="413" width="72" height="20" rx="4" fill="white" stroke="#2a52be" stroke-width="1"/><text x="887" y="428" text-anchor="middle" font-family="monospace" font-size="10" fill="#2a52be">triggers</text>
<path d="M 500 262 L 110 262 L 110 82 L 1200 82" fill="none" stroke="#2a52be" stroke-width="1.8" stroke-dasharray="6,3" opacity="0.85"/>
<text x="486" y="257" text-anchor="middle" font-family="monospace" font-size="12" font-weight="bold" fill="#b45309">N</text>
<text x="1186" y="77" text-anchor="middle" font-family="monospace" font-size="12" font-weight="bold" fill="#b45309">N</text>
<rect x="612" y="71" width="86" height="20" rx="4" fill="white" stroke="#2a52be" stroke-width="1"/><text x="655" y="86" text-anchor="middle" font-family="monospace" font-size="10" fill="#2a52be">has_rarity</text>
<path d="M 500 276 L 93 276 L 93 202 L 1200 202" fill="none" stroke="#2a52be" stroke-width="1.8" stroke-dasharray="6,3" opacity="0.85"/>
<text x="486" y="271" text-anchor="middle" font-family="monospace" font-size="12" font-weight="bold" fill="#b45309">N</text>
<text x="1186" y="197" text-anchor="middle" font-family="monospace" font-size="12" font-weight="bold" fill="#b45309">N</text>
<rect x="607" y="191" width="79" height="20" rx="4" fill="white" stroke="#2a52be" stroke-width="1"/><text x="646" y="206" text-anchor="middle" font-family="monospace" font-size="10" fill="#2a52be">has_tribe</text>
<path d="M 500 290 L 76 290 L 76 322 L 1200 322" fill="none" stroke="#2a52be" stroke-width="1.8" stroke-dasharray="6,3" opacity="0.85"/>
<text x="486" y="285" text-anchor="middle" font-family="monospace" font-size="12" font-weight="bold" fill="#b45309">N</text>
<text x="1186" y="317" text-anchor="middle" font-family="monospace" font-size="12" font-weight="bold" fill="#b45309">N</text>
<rect x="585" y="311" width="107" height="20" rx="4" fill="white" stroke="#2a52be" stroke-width="1"/><text x="638" y="326" text-anchor="middle" font-family="monospace" font-size="10" fill="#2a52be">has_attribute</text>
<path d="M 500 304 L 59 304 L 59 442 L 1200 442" fill="none" stroke="#2a52be" stroke-width="1.8" stroke-dasharray="6,3" opacity="0.85"/>
<text x="486" y="299" text-anchor="middle" font-family="monospace" font-size="12" font-weight="bold" fill="#b45309">N</text>
<text x="1186" y="437" text-anchor="middle" font-family="monospace" font-size="12" font-weight="bold" fill="#b45309">N</text>
<rect x="590" y="431" width="79" height="20" rx="4" fill="white" stroke="#2a52be" stroke-width="1"/><text x="629" y="446" text-anchor="middle" font-family="monospace" font-size="10" fill="#2a52be">has_color</text>
<path d="M 500 318 L 42 318 L 42 562 L 1200 562" fill="none" stroke="#2a52be" stroke-width="1.8" stroke-dasharray="6,3" opacity="0.85"/>
<text x="486" y="313" text-anchor="middle" font-family="monospace" font-size="12" font-weight="bold" fill="#b45309">N</text>
<text x="1186" y="557" text-anchor="middle" font-family="monospace" font-size="12" font-weight="bold" fill="#b45309">N</text>
<rect x="585" y="551" width="72" height="20" rx="4" fill="white" stroke="#2a52be" stroke-width="1"/><text x="621" y="566" text-anchor="middle" font-family="monospace" font-size="10" fill="#2a52be">in_block</text>
<path d="M 550 280 L 550 20 L 1465 20 L 1465 60" fill="none" stroke="#2a52be" stroke-width="1.8" stroke-dasharray="6,3" opacity="0.85"/>
<text x="550" y="261" text-anchor="middle" font-family="monospace" font-size="12" font-weight="bold" fill="#b45309">N</text>
<text x="1465" y="41" text-anchor="middle" font-family="monospace" font-size="12" font-weight="bold" fill="#b45309">N</text>
<rect x="968" y="9" width="79" height="20" rx="4" fill="white" stroke="#2a52be" stroke-width="1"/><text x="1007" y="24" text-anchor="middle" font-family="monospace" font-size="10" fill="#2a52be">in_format</text>
<path d="M 565 280 L 565 40 L 1465 40 L 1465 180" fill="none" stroke="#2a52be" stroke-width="1.8" stroke-dasharray="6,3" opacity="0.85"/>
<text x="565" y="261" text-anchor="middle" font-family="monospace" font-size="12" font-weight="bold" fill="#b45309">N</text>
<text x="1465" y="161" text-anchor="middle" font-family="monospace" font-size="12" font-weight="bold" fill="#b45309">N</text>
<rect x="969" y="29" width="93" height="20" rx="4" fill="white" stroke="#2a52be" stroke-width="1"/><text x="1015" y="44" text-anchor="middle" font-family="monospace" font-size="10" fill="#2a52be">has_keyword</text>
<path d="M 580 280 L 580 60 L 1465 60 L 1465 300" fill="none" stroke="#2a52be" stroke-width="1.8" stroke-dasharray="6,3" opacity="0.85"/>
<text x="580" y="261" text-anchor="middle" font-family="monospace" font-size="12" font-weight="bold" fill="#b45309">N</text>
<text x="1465" y="281" text-anchor="middle" font-family="monospace" font-size="12" font-weight="bold" fill="#b45309">N</text>
<rect x="976" y="49" width="93" height="20" rx="4" fill="white" stroke="#2a52be" stroke-width="1"/><text x="1022" y="64" text-anchor="middle" font-family="monospace" font-size="10" fill="#2a52be">has_resword</text>
<!-- Entity boxes (on top) -->
<rect x="162" y="82" width="130" height="44" rx="5" fill="#00000018"/><rect x="160" y="80" width="130" height="44" rx="5" fill="#ffffff" stroke="#1a1a1a" stroke-width="2"/><text x="225" y="108" text-anchor="middle" font-family="monospace" font-size="14" font-weight="bold" fill="#1a1a1a">SetType</text>
<rect x="162" y="202" width="130" height="44" rx="5" fill="#00000018"/><rect x="160" y="200" width="130" height="44" rx="5" fill="#ffffff" stroke="#1a1a1a" stroke-width="2"/><text x="225" y="228" text-anchor="middle" font-family="monospace" font-size="14" font-weight="bold" fill="#1a1a1a">CardType</text>
<rect x="162" y="342" width="130" height="44" rx="5" fill="#00000018"/><rect x="160" y="340" width="130" height="44" rx="5" fill="#ffffff" stroke="#1a1a1a" stroke-width="2"/><text x="225" y="368" text-anchor="middle" font-family="monospace" font-size="14" font-weight="bold" fill="#1a1a1a">Set</text>
<rect x="502" y="282" width="130" height="44" rx="5" fill="#00000018"/><rect x="500" y="280" width="130" height="44" rx="5" fill="#ffffff" stroke="#1a1a1a" stroke-width="2"/><text x="565" y="308" text-anchor="middle" font-family="monospace" font-size="14" font-weight="bold" fill="#1a1a1a">Card</text>
<rect x="822" y="282" width="130" height="44" rx="5" fill="#00000018"/><rect x="820" y="280" width="130" height="44" rx="5" fill="#ffffff" stroke="#1a1a1a" stroke-width="2"/><text x="885" y="308" text-anchor="middle" font-family="monospace" font-size="14" font-weight="bold" fill="#1a1a1a">Naip</text>
<rect x="962" y="102" width="130" height="44" rx="5" fill="#00000018"/><rect x="960" y="100" width="130" height="44" rx="5" fill="#ffffff" stroke="#1a1a1a" stroke-width="2"/><text x="1025" y="128" text-anchor="middle" font-family="monospace" font-size="14" font-weight="bold" fill="#1a1a1a">Image</text>
<rect x="1042" y="282" width="130" height="44" rx="5" fill="#00000018"/><rect x="1040" y="280" width="130" height="44" rx="5" fill="#ffffff" stroke="#1a1a1a" stroke-width="2"/><text x="1105" y="308" text-anchor="middle" font-family="monospace" font-size="14" font-weight="bold" fill="#1a1a1a">Artist</text>
<rect x="402" y="522" width="130" height="44" rx="5" fill="#00000018"/><rect x="400" y="520" width="130" height="44" rx="5" fill="#ffffff" stroke="#1a1a1a" stroke-width="2"/><text x="465" y="548" text-anchor="middle" font-family="monospace" font-size="14" font-weight="bold" fill="#1a1a1a">Name</text>
<rect x="602" y="522" width="130" height="44" rx="5" fill="#00000018"/><rect x="600" y="520" width="130" height="44" rx="5" fill="#ffffff" stroke="#1a1a1a" stroke-width="2"/><text x="665" y="548" text-anchor="middle" font-family="monospace" font-size="14" font-weight="bold" fill="#1a1a1a">Effect</text>
<rect x="802" y="522" width="130" height="44" rx="5" fill="#00000018"/><rect x="800" y="520" width="130" height="44" rx="5" fill="#ffffff" stroke="#1a1a1a" stroke-width="2"/><text x="865" y="548" text-anchor="middle" font-family="monospace" font-size="14" font-weight="bold" fill="#1a1a1a">Trigger</text>
<rect x="1202" y="62" width="130" height="44" rx="5" fill="#00000018"/><rect x="1200" y="60" width="130" height="44" rx="5" fill="#ffffff" stroke="#1a1a1a" stroke-width="2"/><text x="1265" y="88" text-anchor="middle" font-family="monospace" font-size="14" font-weight="bold" fill="#1a1a1a">Rarity</text>
<rect x="1202" y="182" width="130" height="44" rx="5" fill="#00000018"/><rect x="1200" y="180" width="130" height="44" rx="5" fill="#ffffff" stroke="#1a1a1a" stroke-width="2"/><text x="1265" y="208" text-anchor="middle" font-family="monospace" font-size="14" font-weight="bold" fill="#1a1a1a">Tribe</text>
<rect x="1202" y="302" width="130" height="44" rx="5" fill="#00000018"/><rect x="1200" y="300" width="130" height="44" rx="5" fill="#ffffff" stroke="#1a1a1a" stroke-width="2"/><text x="1265" y="328" text-anchor="middle" font-family="monospace" font-size="14" font-weight="bold" fill="#1a1a1a">Attribute</text>
<rect x="1202" y="422" width="130" height="44" rx="5" fill="#00000018"/><rect x="1200" y="420" width="130" height="44" rx="5" fill="#ffffff" stroke="#1a1a1a" stroke-width="2"/><text x="1265" y="448" text-anchor="middle" font-family="monospace" font-size="14" font-weight="bold" fill="#1a1a1a">Color</text>
<rect x="1202" y="542" width="130" height="44" rx="5" fill="#00000018"/><rect x="1200" y="540" width="130" height="44" rx="5" fill="#ffffff" stroke="#1a1a1a" stroke-width="2"/><text x="1265" y="568" text-anchor="middle" font-family="monospace" font-size="14" font-weight="bold" fill="#1a1a1a">Block</text>
<rect x="1402" y="62" width="130" height="44" rx="5" fill="#00000018"/><rect x="1400" y="60" width="130" height="44" rx="5" fill="#ffffff" stroke="#1a1a1a" stroke-width="2"/><text x="1465" y="88" text-anchor="middle" font-family="monospace" font-size="14" font-weight="bold" fill="#1a1a1a">Format</text>
<rect x="1402" y="182" width="130" height="44" rx="5" fill="#00000018"/><rect x="1400" y="180" width="130" height="44" rx="5" fill="#ffffff" stroke="#1a1a1a" stroke-width="2"/><text x="1465" y="208" text-anchor="middle" font-family="monospace" font-size="14" font-weight="bold" fill="#1a1a1a">Keyword</text>
<rect x="1402" y="302" width="130" height="44" rx="5" fill="#00000018"/><rect x="1400" y="300" width="130" height="44" rx="5" fill="#ffffff" stroke="#1a1a1a" stroke-width="2"/><text x="1465" y="328" text-anchor="middle" font-family="monospace" font-size="14" font-weight="bold" fill="#1a1a1a">Resword</text>
</svg>